<?xml version="1.0" encoding="UTF-8"?>
<svg id="_レイヤー_2" data-name="レイヤー 2" xmlns="http://www.w3.org/2000/svg" viewBox="0 0 21.56 21.56">
  <defs>
    <style>
      .cls-1 {
        fill: #550700;
      }
    </style>
  </defs>
  <g id="_メインビジュアルの動き" data-name="メインビジュアルの動き">
    <path class="cls-1" d="M10.78,1.94c2.88,0,3.22,.01,4.36,.06,1.05,.05,1.62,.22,2,.37,.5,.2,.86,.43,1.24,.81s.61,.74,.81,1.24c.15,.38,.32,.95,.37,2,.05,1.14,.06,1.48,.06,4.36s-.01,3.22-.06,4.36c-.05,1.05-.22,1.62-.37,2-.2,.5-.43,.86-.81,1.24-.38,.38-.74,.61-1.24,.81-.38,.15-.95,.32-2,.37-1.14,.05-1.48,.06-4.36,.06s-3.22-.01-4.36-.06c-1.05-.05-1.62-.22-2-.37-.5-.2-.86-.43-1.24-.81-.38-.38-.61-.74-.81-1.24-.15-.38-.32-.95-.37-2-.05-1.14-.06-1.48-.06-4.36s.01-3.22,.06-4.36c.05-1.05,.22-1.62,.37-2,.2-.5,.43-.86,.81-1.24,.38-.38,.74-.61,1.24-.81,.38-.15,.95-.32,2-.37,1.14-.05,1.48-.06,4.36-.06m0-1.94c-2.93,0-3.3,.01-4.45,.06-1.15,.05-1.93,.23-2.62,.5-.71,.28-1.31,.64-1.91,1.24-.6,.6-.97,1.2-1.24,1.91-.27,.69-.45,1.47-.5,2.62-.05,1.15-.06,1.52-.06,4.45s.01,3.3,.06,4.45c.05,1.15,.23,1.93,.5,2.62,.28,.71,.64,1.31,1.24,1.91,.6,.6,1.2,.97,1.91,1.24,.69,.27,1.47,.45,2.62,.5,1.15,.05,1.52,.06,4.45,.06s3.3-.01,4.45-.06c1.15-.05,1.93-.23,2.62-.5,.71-.28,1.31-.64,1.91-1.24,.6-.6,.97-1.2,1.24-1.91,.27-.69,.45-1.47,.5-2.62,.05-1.15,.06-1.52,.06-4.45s-.01-3.3-.06-4.45c-.05-1.15-.23-1.93-.5-2.62-.28-.71-.64-1.31-1.24-1.91-.6-.6-1.2-.97-1.91-1.24-.69-.27-1.47-.45-2.62-.5-1.15-.05-1.52-.06-4.45-.06Zm0,5.25c-3.06,0-5.54,2.48-5.54,5.54s2.48,5.54,5.54,5.54,5.54-2.48,5.54-5.54-2.48-5.54-5.54-5.54Zm0,9.13c-1.98,0-3.59-1.61-3.59-3.59s1.61-3.59,3.59-3.59,3.59,1.61,3.59,3.59-1.61,3.59-3.59,3.59Zm7.05-9.35c0,.71-.58,1.29-1.29,1.29s-1.29-.58-1.29-1.29,.58-1.29,1.29-1.29,1.29,.58,1.29,1.29Z"/>
  </g>
</svg>