<?xml version="1.0" encoding="UTF-8"?>
<svg id="_レイヤー_2" data-name="レイヤー 2" xmlns="http://www.w3.org/2000/svg" viewBox="0 0 20.75 23.43">
  <defs>
    <style>
      .cls-1 {
        fill: #550700;
        fill-rule: evenodd;
      }
    </style>
  </defs>
  <g id="_メインビジュアルの動き" data-name="メインビジュアルの動き">
    <path id="Shape" class="cls-1" d="M8.91,10.31h-2.76c-.33,0-.44-.02-.6-.07-.45-.13-.8-.59-.8-1.12s.35-.99,.8-1.12c.17-.05,.28-.07,.6-.07h1.79v-1.79c0-.33,.02-.44,.07-.6,.13-.46,.59-.8,1.12-.8s.99,.35,1.12,.8c.05,.17,.07,.28,.07,.6v2.76c0,.17,0,.34-.03,.49-.09,.42-.47,.8-.89,.89-.15,.03-.32,.03-.49,.03h0Zm8.87,10.15H2.96V7.41c0-.17,.06-.31,.18-.43l3.84-3.84c.12-.12,.26-.18,.43-.18h10.37V20.46ZM.72,5.22c-.39,.39-.65,.89-.7,1.44,0,.09-.02,.23-.02,.36v14.76c0,.19,0,.29,.02,.37,.07,.63,.64,1.2,1.26,1.26,.08,0,.18,.02,.37,.02H19.1c.19,0,.29,0,.37-.02,.63-.07,1.2-.64,1.26-1.26,0-.08,.02-.18,.02-.37V1.65c0-.19,0-.29-.02-.37-.07-.63-.64-1.2-1.26-1.26-.08,0-.18-.02-.37-.02H7.02c-.13,0-.27,0-.36,.02-.55,.05-1.05,.31-1.44,.7L.72,5.22Z"/>
  </g>
</svg>