<?xml version="1.0" encoding="UTF-8"?>
<svg id="_レイヤー_2" data-name="レイヤー 2" xmlns="http://www.w3.org/2000/svg" viewBox="0 0 24.15 19.63">
  <defs>
    <style>
      .cls-1 {
        fill: #550700;
      }
    </style>
  </defs>
  <g id="_メインビジュアルの動き" data-name="メインビジュアルの動き">
    <path class="cls-1" d="M24.15,2.32c-.89,.39-1.84,.66-2.85,.78,1.02-.61,1.81-1.58,2.18-2.74-.96,.57-2.02,.98-3.15,1.2-.9-.96-2.19-1.56-3.62-1.56-2.74,0-4.95,2.22-4.95,4.95,0,.39,.04,.77,.13,1.13C7.78,5.88,4.12,3.9,1.68,.91c-.43,.73-.67,1.58-.67,2.49,0,1.72,.87,3.24,2.2,4.12-.81-.03-1.58-.25-2.24-.62,0,.02,0,.04,0,.06,0,2.4,1.71,4.4,3.97,4.86-.42,.11-.85,.17-1.31,.17-.32,0-.63-.03-.93-.09,.63,1.97,2.46,3.4,4.63,3.44-1.7,1.33-3.83,2.12-6.15,2.12-.4,0-.79-.02-1.18-.07,2.19,1.41,4.8,2.23,7.6,2.23,9.11,0,14.1-7.55,14.1-14.1,0-.21,0-.43-.01-.64,.97-.7,1.81-1.57,2.47-2.56"/>
  </g>
</svg>