<?xml version="1.0" encoding="UTF-8"?>
<svg id="_レイヤー_2" data-name="レイヤー 2" xmlns="http://www.w3.org/2000/svg" viewBox="0 0 23.55 16.5">
  <defs>
    <style>
      .cls-1 {
        fill: #550700;
      }
    </style>
  </defs>
  <g id="_メインビジュアルの動き" data-name="メインビジュアルの動き">
    <path class="cls-1" d="M23.03,2.58c-.27-1.02-1.07-1.81-2.08-2.08-1.83-.5-9.18-.5-9.18-.5,0,0-7.36,.02-9.18,.51C1.56,.79,.77,1.58,.5,2.6c-.55,3.25-.77,8.2,.02,11.31,.27,1.02,1.07,1.81,2.08,2.08,1.83,.5,9.18,.5,9.18,.5,0,0,7.36,0,9.18-.5,1.02-.27,1.81-1.07,2.08-2.08,.58-3.25,.76-8.2-.02-11.33ZM9.42,11.78V4.71l6.1,3.53-6.1,3.53Z"/>
  </g>
</svg>